<?xml version="1.0" encoding="UTF-8" standalone="no"?>
<svg width="273px" height="274px" viewBox="0 0 273 274" version="1.1" xmlns="http://www.w3.org/2000/svg" xmlns:xlink="http://www.w3.org/1999/xlink">
    <!-- Generator: Sketch 3.7.2 (28276) - http://www.bohemiancoding.com/sketch -->
    <title>finger-print</title>
    <desc>Created with Sketch.</desc>
    <defs></defs>
    <g id="Page-3" stroke="none" stroke-width="1" fill="none" fill-rule="evenodd" stroke-linecap="round" stroke-linejoin="round">
        <g id="finger-print" transform="translate(137.743592, 137.352285) rotate(-11.400000) translate(-137.743592, -137.352285) translate(3.743592, 3.852285)" stroke="#000000" stroke-width="8">
            <path d="M134.031936,133 L134.031936,133 C134.034111,133.333877 134.0352,133.668011 134.0352,134.0024 C134.0352,181.984758 111.602085,224.729939 76.6503753,252.319586 L76.6503753,252.319586" id="Combined-Shape"></path>
            <path d="M117.3076,134.002 C117.3076,179.14191 94.9737823,219.068435 60.7516921,243.331031 M94.2569871,259.395133 C128.913666,228.72779 150.7627,183.915376 150.7627,134.0029 C150.8164,124.7096 143.2894,117.1816 134.0024,117.1816 C124.986044,117.1816 117.62766,124.277227 117.206437,133.190206" id="Combined-Shape" stroke-dasharray="54,20"></path>
            <path d="M100.5811,134 L100.5811,134 C100.5811,134.000667 100.5811,134.001333 100.5811,134.002 C100.5811,175.452002 79.0606588,211.878612 46.5822155,232.715715 L46.5822155,232.715715 M113.558275,264.191925 C146.879638,230.874021 167.4893,184.844109 167.4893,134.0029 C167.5283,115.479 152.5183,100.469 134.0023,100.469 C115.760736,100.469 100.92322,115.034207 100.484296,133.17103" id="Combined-Shape" stroke-dasharray="86,20,122,20"></path>
            <path d="M83.8535,134 L83.8535,134 C83.8535,134.0005 83.8535,134.001 83.8535,134.0015 C83.8535,170.956853 63.9005403,203.254445 34.1778448,220.705439 L34.1778448,220.705439 M134.544728,266.234724 C165.473308,230.906991 184.2168,184.643027 184.2168,134.0039 C184.2422,106.249 161.7502,83.757 134.0022,83.757 C106.540513,83.757 84.2259401,105.787235 83.7683654,133.141697" id="Combined-Shape" stroke-dasharray="190,20"></path>
            <path d="M67.127,134 L67.127,134 C67.127,134.000333 67.127,134.000667 67.127,134.001 C67.127,165.68211 49.532981,193.256713 23.5810329,207.484219 L23.5810329,207.484219 M157.204418,264.861412 C184.663549,228.444315 200.9434,183.124248 200.9434,134.0039 C200.9541,97.02 170.9801,67.044 134.0021,67.044 C97.3165849,67.044 67.5249474,96.5444819 67.0527908,133.116929" id="Combined-Shape" stroke-dasharray="40,20,300,20"></path>
            <path d="M50.3994,134 L50.3994,134 C50.3994,134.000167 50.3994,134.000333 50.3994,134.0005 C50.3994,159.640749 35.9986381,181.920309 14.8422679,193.18937 L14.8422679,193.18937 M181.658883,258.868565 C204.470636,222.721897 217.6709,179.903697 217.6709,134.0039 C217.6709,133.669102 217.670198,133.334468 217.668795,133 C217.140217,87.2654619 179.886931,50.332 134.002,50.332 C88.0946689,50.332 50.8266645,87.298331 50.3388442,133.090144" id="Combined-Shape" stroke-dasharray="160,20,90,20"></path>
            <path d="M33.6719,134 L33.6719,134 C33.6719,134.000167 33.6719,134.000333 33.6719,134.0005 C33.6719,152.825989 23.3264308,169.237766 8.00929838,177.857974 L8.00929671,177.85797 M208.090697,245.995642 C224.926163,212.281614 234.3975,174.248544 234.3975,134.0044 C234.3975,133.669446 234.396844,133.334646 234.395533,133 C233.885454,78.0667232 189.136719,33.6205 134.0019,33.6205 C78.872583,33.6205 34.1255383,78.0546476 33.624155,133.066442" id="Combined-Shape" stroke-dasharray="80,20,300,20"></path>
            <path d="M251.125,134 L251.125,134.0049 C251.125,164.427513 246.050576,193.665519 236.701867,220.918502 L236.701867,220.918502 M251.0918,134 C251.09126,69.3284596 198.671467,16.907 134.0018,16.907 C69.3301333,16.907 16.9073404,69.3284596 16.9068,134 L16.9068,134 M16.9453,134 L16.9453,134 C16.9453,145.158501 11.4993964,155.045954 3.11963966,161.148561" id="Combined-Shape" stroke-dasharray="135,20,400"></path>
            <path d="M267.8047,134 C267.803619,60.0979192 207.902033,0.195 134.0017,0.195 C60.0993667,0.195 0.194780789,60.0979192 0.193700015,134" id="Combined-Shape" stroke-dasharray="110,20,180,20"></path>
        </g>
    </g>
</svg>